<?xml version="1.0" encoding="UTF-8" standalone="no"?>
<!DOCTYPE svg PUBLIC "-//W3C//DTD SVG 1.1//EN" "http://www.w3.org/Graphics/SVG/1.1/DTD/svg11.dtd">
<svg width="100%" height="100%" viewBox="0 0 256 256" version="1.1" xmlns="http://www.w3.org/2000/svg" xmlns:xlink="http://www.w3.org/1999/xlink" xml:space="preserve" xmlns:serif="http://www.serif.com/" style="fill-rule:evenodd;clip-rule:evenodd;stroke-linejoin:round;stroke-miterlimit:2;">
    <g>
        <path d="M230.487,186L226.554,179.169C225.591,177.495 226.167,175.353 227.841,174.389C229.515,173.426 231.657,174.002 232.621,175.676L241.602,191.276C241.667,191.388 241.724,191.503 241.775,191.619C242.543,193.077 242.978,194.738 242.978,196.5C242.978,196.5 242.978,232.5 242.978,232.5C242.978,238.295 238.273,243 232.478,243L23.478,243C22.248,242.996 21.025,242.786 19.869,242.362C18.043,241.693 16.42,240.51 15.219,238.981C14.458,238.014 13.87,236.914 13.489,235.744C13.15,234.698 12.978,233.6 12.978,232.5C12.978,220.5 12.978,208.5 12.978,196.5C12.978,195.336 13.171,194.173 13.551,193.073C13.76,192.469 14.025,191.887 14.338,191.33L14.361,191.291C14.369,191.276 14.378,191.261 14.386,191.246L23.405,175.669C24.373,173.997 26.516,173.426 28.188,174.394C29.86,175.362 30.431,177.505 29.463,179.176L25.513,186L230.487,186ZM232.478,193L23.478,193C21.546,193 19.978,194.568 19.978,196.5L19.978,232.5C19.978,234.432 21.546,236 23.478,236L232.478,236C234.41,236 235.978,234.432 235.978,232.5L235.978,196.5C235.978,194.568 234.41,193 232.478,193ZM217.478,224.5L92.125,224.5C90.193,224.5 88.625,222.932 88.625,221C88.625,219.068 90.193,217.5 92.125,217.5L217.478,217.5C219.41,217.5 220.978,219.068 220.978,221C220.978,222.932 219.41,224.5 217.478,224.5ZM60.978,208C64.565,208 67.478,210.913 67.478,214.5C67.478,218.087 64.565,221 60.978,221C57.39,221 54.478,218.087 54.478,214.5C54.478,210.913 57.39,208 60.978,208ZM41.478,208C45.065,208 47.978,210.913 47.978,214.5C47.978,218.087 45.065,221 41.478,221C37.89,221 34.978,218.087 34.978,214.5C34.978,210.913 37.89,208 41.478,208ZM217.478,211.5L92.125,211.5C90.193,211.5 88.625,209.932 88.625,208C88.625,206.068 90.193,204.5 92.125,204.5L217.478,204.5C219.41,204.5 220.978,206.068 220.978,208C220.978,209.932 219.41,211.5 217.478,211.5Z" style="fill:rgb(89,89,89);"/>
        <path d="M221.96,93.724L241.601,127.785C241.663,127.894 241.72,128.006 241.77,128.12C242.541,129.582 242.978,131.246 242.978,133.011C242.978,133.011 242.978,169.011 242.978,169.011C242.978,174.806 238.273,179.511 232.478,179.511L23.478,179.511C22.129,179.495 20.798,179.256 19.545,178.748C16.6,177.555 14.295,175.02 13.401,171.969C13.12,171.01 12.978,170.01 12.978,169.011C12.977,157.011 12.977,145.011 12.978,133.011C12.978,131.162 13.476,129.363 14.385,127.759L25.446,108.624C25.746,108.922 26.052,109.208 26.361,109.482C27.886,110.832 29.46,111.959 31.075,112.874L25.504,122.511L230.479,122.511L219.259,103.053L219.259,93.951L220.189,93.951C220.797,93.951 221.391,93.873 221.96,93.724ZM232.478,129.511L23.478,129.511C21.546,129.511 19.978,131.079 19.978,133.011L19.978,169.011C19.978,170.943 21.546,172.511 23.478,172.511L232.478,172.511C234.41,172.511 235.978,170.943 235.978,169.011L235.978,133.011C235.978,131.079 234.41,129.511 232.478,129.511ZM217.478,161.011L92.125,161.011C90.193,161.011 88.625,159.443 88.625,157.511C88.625,155.579 90.193,154.011 92.125,154.011L217.478,154.011C219.41,154.011 220.978,155.579 220.978,157.511C220.978,159.443 219.41,161.011 217.478,161.011ZM60.978,144.511C64.565,144.511 67.478,147.424 67.478,151.011C67.478,154.598 64.565,157.511 60.978,157.511C57.39,157.511 54.478,154.598 54.478,151.011C54.478,147.424 57.39,144.511 60.978,144.511ZM41.478,144.511C45.065,144.511 47.978,147.424 47.978,151.011C47.978,154.598 45.065,157.511 41.478,157.511C37.89,157.511 34.978,154.598 34.978,151.011C34.978,147.424 37.89,144.511 41.478,144.511ZM217.478,148.011L92.125,148.011C90.193,148.011 88.625,146.443 88.625,144.511C88.625,142.579 90.193,141.011 92.125,141.011L217.478,141.011C219.41,141.011 220.978,142.579 220.978,144.511C220.978,146.443 219.41,148.011 217.478,148.011ZM127.997,95.649C127.998,95.939 128.001,96.229 128.006,96.519L128.009,96.649L101.71,96.649L101.71,89.649L127.997,89.649L127.997,95.649Z" style="fill:rgb(89,89,89);"/>
    </g>
    <g>
        <path d="M150.951,33.758L146.253,33.758L146.253,32.688C146.253,31.075 146.063,29.816 145.684,28.909C145.304,28.002 144.68,27.548 143.811,27.548C143.331,27.548 142.912,27.661 142.556,27.885C142.199,28.11 141.901,28.494 141.66,29.037C141.42,29.579 141.242,30.308 141.125,31.223C141.009,32.137 140.951,33.285 140.951,34.665L140.951,43.758C140.951,45.153 140.997,46.339 141.09,47.316C141.183,48.293 141.346,49.087 141.579,49.7C141.811,50.312 142.121,50.758 142.509,51.037C142.897,51.316 143.377,51.455 143.951,51.455C144.246,51.455 144.532,51.382 144.811,51.235C145.09,51.087 145.335,50.843 145.544,50.502C145.753,50.161 145.924,49.707 146.056,49.141C146.187,48.576 146.253,47.874 146.253,47.037L146.253,46.037L151.323,46.037L151.323,47.269C151.323,50.308 150.653,52.521 149.311,53.909C147.97,55.297 145.966,55.99 143.3,55.99C140.602,55.99 138.544,54.882 137.125,52.665C135.707,50.448 134.997,47.068 134.997,42.525L134.997,36.479C134.997,34.447 135.145,32.707 135.439,31.258C135.734,29.808 136.125,28.591 136.614,27.606C137.102,26.622 137.66,25.843 138.288,25.269C138.916,24.695 139.563,24.257 140.23,23.955C140.897,23.653 141.556,23.459 142.207,23.374C142.858,23.288 143.455,23.246 143.997,23.246C145.083,23.246 146.075,23.389 146.974,23.676C147.873,23.963 148.649,24.397 149.3,24.978C149.951,25.56 150.455,26.292 150.812,27.176C151.168,28.06 151.346,29.099 151.346,30.292C151.346,31.037 151.312,31.676 151.242,32.211C151.172,32.746 151.075,33.261 150.951,33.758ZM190.314,33.758L185.617,33.758L185.617,32.688C185.617,31.075 185.427,29.816 185.047,28.909C184.667,28.002 184.043,27.548 183.175,27.548C182.694,27.548 182.276,27.661 181.919,27.885C181.562,28.11 181.264,28.494 181.024,29.037C180.783,29.579 180.605,30.308 180.489,31.223C180.372,32.137 180.314,33.285 180.314,34.665L180.314,43.758C180.314,45.153 180.361,46.339 180.454,47.316C180.547,48.293 180.71,49.087 180.942,49.7C181.175,50.312 181.485,50.758 181.872,51.037C182.26,51.316 182.741,51.455 183.314,51.455C183.609,51.455 183.896,51.382 184.175,51.235C184.454,51.087 184.698,50.843 184.907,50.502C185.117,50.161 185.287,49.707 185.419,49.141C185.551,48.576 185.617,47.874 185.617,47.037L185.617,46.037L190.686,46.037L190.686,47.269C190.686,50.308 190.016,52.521 188.675,53.909C187.334,55.297 185.33,55.99 182.663,55.99C179.965,55.99 177.907,54.882 176.489,52.665C175.07,50.448 174.361,47.068 174.361,42.525L174.361,36.479C174.361,34.447 174.508,32.707 174.803,31.258C175.097,29.808 175.489,28.591 175.977,27.606C176.465,26.622 177.023,25.843 177.651,25.269C178.279,24.695 178.927,24.257 179.593,23.955C180.26,23.653 180.919,23.459 181.57,23.374C182.221,23.288 182.818,23.246 183.361,23.246C184.446,23.246 185.438,23.389 186.338,23.676C187.237,23.963 188.012,24.397 188.663,24.978C189.314,25.56 189.818,26.292 190.175,27.176C190.531,28.06 190.71,29.099 190.71,30.292C190.71,31.037 190.675,31.676 190.605,32.211C190.535,32.746 190.438,33.261 190.314,33.758ZM158.644,33.758L154.156,33.758C154.016,33.153 153.912,32.599 153.842,32.095C153.772,31.591 153.737,31.091 153.737,30.595C153.737,29.401 153.943,28.347 154.353,27.432C154.764,26.517 155.338,25.75 156.074,25.13C156.811,24.509 157.691,24.04 158.714,23.723C159.737,23.405 160.861,23.246 162.086,23.246C163.683,23.246 165.009,23.42 166.063,23.769C167.117,24.118 167.958,24.641 168.586,25.339C169.214,26.037 169.656,26.912 169.912,27.967C170.168,29.021 170.295,30.254 170.295,31.664L170.295,55.642L165.923,55.642L165.505,52.897C164.869,53.812 164.02,54.556 162.958,55.13C161.896,55.704 160.683,55.99 159.319,55.99C158.326,55.99 157.446,55.793 156.679,55.397C155.912,55.002 155.264,54.463 154.737,53.781C154.21,53.099 153.811,52.289 153.539,51.351C153.268,50.413 153.132,49.393 153.132,48.293C153.132,46.975 153.295,45.804 153.621,44.781C153.946,43.758 154.423,42.835 155.051,42.013C155.679,41.192 156.458,40.444 157.388,39.769C158.319,39.095 159.396,38.455 160.621,37.851C161.21,37.556 161.873,37.258 162.609,36.955C163.346,36.653 164.001,36.393 164.574,36.176L164.574,31.944C164.574,31.323 164.551,30.746 164.505,30.211C164.458,29.676 164.346,29.211 164.168,28.816C163.989,28.42 163.722,28.11 163.365,27.885C163.009,27.661 162.52,27.548 161.9,27.548C161.481,27.548 161.074,27.626 160.679,27.781C160.284,27.936 159.935,28.199 159.633,28.571C159.33,28.944 159.09,29.44 158.912,30.06C158.733,30.68 158.644,31.447 158.644,32.362L158.644,33.758ZM221.91,40.734L221.91,43.99C221.91,45.386 221.964,46.56 222.073,47.514C222.181,48.467 222.364,49.235 222.619,49.816C222.875,50.397 223.224,50.816 223.666,51.072C224.108,51.328 224.662,51.455 225.329,51.455C225.685,51.455 226.034,51.382 226.375,51.235C226.716,51.087 227.015,50.843 227.271,50.502C227.527,50.161 227.732,49.707 227.887,49.141C228.042,48.576 228.12,47.874 228.12,47.037L228.12,46.037L233.027,46.037L233.027,47.269C233.027,50.308 232.302,52.521 230.852,53.909C229.403,55.297 227.306,55.99 224.561,55.99C223.181,55.99 221.961,55.735 220.899,55.223C219.836,54.711 218.941,53.913 218.212,52.828C217.484,51.742 216.933,50.351 216.561,48.653C216.189,46.955 216.003,44.913 216.003,42.525L216.003,36.479C216.003,34.447 216.154,32.707 216.457,31.258C216.759,29.808 217.154,28.591 217.643,27.606C218.131,26.622 218.697,25.843 219.34,25.269C219.984,24.695 220.647,24.257 221.329,23.955C222.011,23.653 222.689,23.459 223.364,23.374C224.038,23.288 224.662,23.246 225.236,23.246C226.29,23.246 227.306,23.405 228.282,23.723C229.259,24.04 230.12,24.583 230.864,25.35C231.608,26.118 232.201,27.145 232.643,28.432C233.085,29.719 233.306,31.323 233.306,33.246C233.306,33.897 233.286,34.556 233.248,35.223C233.209,35.889 233.158,36.544 233.096,37.188C233.034,37.831 232.953,38.455 232.852,39.06C232.751,39.665 232.647,40.223 232.538,40.734L221.91,40.734ZM200.147,55.642L194.263,55.642L194.263,13.339L200.147,13.339L200.147,20.874L199.845,26.362C200.279,25.757 200.748,25.257 201.252,24.862C201.756,24.467 202.275,24.149 202.81,23.909C203.345,23.668 203.887,23.498 204.438,23.397C204.988,23.296 205.535,23.246 206.077,23.246C207.953,23.246 209.399,23.901 210.415,25.211C211.43,26.521 211.938,28.486 211.938,31.106L211.938,55.642L206.054,55.642L206.054,31.316C206.054,29.905 205.837,28.924 205.403,28.374C204.969,27.823 204.333,27.548 203.496,27.548C202.907,27.548 202.314,27.746 201.717,28.141C201.12,28.537 200.597,29.083 200.147,29.781L200.147,55.642ZM161.923,51.455C162.419,51.455 162.904,51.328 163.377,51.072C163.85,50.816 164.249,50.502 164.574,50.13L164.574,40.106C164.264,40.231 163.916,40.378 163.528,40.548C163.14,40.719 162.722,40.944 162.272,41.223C161.854,41.486 161.443,41.804 161.04,42.176C160.636,42.548 160.276,42.99 159.958,43.502C159.64,44.014 159.384,44.591 159.191,45.234C158.997,45.878 158.9,46.595 158.9,47.386C158.9,48.61 159.14,49.595 159.621,50.339C160.102,51.083 160.869,51.455 161.923,51.455ZM227.817,36.781C227.833,36.61 227.848,36.382 227.864,36.095C227.879,35.808 227.891,35.51 227.899,35.199C227.906,34.889 227.91,34.583 227.91,34.281L227.91,33.502C227.91,31.393 227.662,29.874 227.166,28.944C226.67,28.013 225.933,27.548 224.957,27.548C224.445,27.548 223.995,27.668 223.608,27.909C223.22,28.149 222.902,28.552 222.654,29.118C222.406,29.684 222.22,30.432 222.096,31.362C221.972,32.292 221.91,33.447 221.91,34.827L221.91,36.781L227.817,36.781Z" style="fill:rgb(38,38,38);fill-rule:nonzero;"/>
        <path d="M150.951,86.882L146.253,86.882L146.253,85.812C146.253,84.2 146.063,82.94 145.684,82.033C145.304,81.126 144.68,80.672 143.811,80.672C143.331,80.672 142.912,80.785 142.556,81.01C142.199,81.234 141.901,81.618 141.66,82.161C141.42,82.703 141.242,83.432 141.125,84.347C141.009,85.262 140.951,86.409 140.951,87.789L140.951,96.882C140.951,98.277 140.997,99.463 141.09,100.44C141.183,101.417 141.346,102.211 141.579,102.824C141.811,103.436 142.121,103.882 142.509,104.161C142.897,104.44 143.377,104.58 143.951,104.58C144.246,104.58 144.532,104.506 144.811,104.359C145.09,104.211 145.335,103.967 145.544,103.626C145.753,103.285 145.924,102.832 146.056,102.266C146.187,101.7 146.253,100.998 146.253,100.161L146.253,99.161L151.323,99.161L151.323,100.394C151.323,103.432 150.653,105.646 149.311,107.033C147.97,108.421 145.966,109.115 143.3,109.115C140.602,109.115 138.544,108.006 137.125,105.789C135.707,103.572 134.997,100.192 134.997,95.649L134.997,89.603C134.997,87.572 135.145,85.831 135.439,84.382C135.734,82.932 136.125,81.715 136.614,80.73C137.102,79.746 137.66,78.967 138.288,78.393C138.916,77.82 139.563,77.382 140.23,77.079C140.897,76.777 141.556,76.583 142.207,76.498C142.858,76.413 143.455,76.37 143.997,76.37C145.083,76.37 146.075,76.513 146.974,76.8C147.873,77.087 148.649,77.521 149.3,78.103C149.951,78.684 150.455,79.416 150.812,80.3C151.168,81.184 151.346,82.223 151.346,83.417C151.346,84.161 151.312,84.8 151.242,85.335C151.172,85.87 151.075,86.386 150.951,86.882ZM189.821,86.882L185.333,86.882C185.193,86.277 185.089,85.723 185.019,85.219C184.949,84.715 184.914,84.215 184.914,83.719C184.914,82.525 185.12,81.471 185.531,80.556C185.941,79.641 186.515,78.874 187.252,78.254C187.988,77.634 188.868,77.165 189.891,76.847C190.914,76.529 192.038,76.37 193.263,76.37C194.86,76.37 196.186,76.544 197.24,76.893C198.294,77.242 199.135,77.765 199.763,78.463C200.391,79.161 200.833,80.037 201.089,81.091C201.345,82.145 201.473,83.378 201.473,84.789L201.473,108.766L197.101,108.766L196.682,106.022C196.046,106.936 195.197,107.68 194.135,108.254C193.073,108.828 191.86,109.115 190.496,109.115C189.504,109.115 188.624,108.917 187.856,108.522C187.089,108.126 186.441,107.587 185.914,106.905C185.387,106.223 184.988,105.413 184.717,104.475C184.445,103.537 184.31,102.518 184.31,101.417C184.31,100.099 184.472,98.928 184.798,97.905C185.124,96.882 185.6,95.959 186.228,95.138C186.856,94.316 187.635,93.568 188.566,92.893C189.496,92.219 190.573,91.579 191.798,90.975C192.387,90.68 193.05,90.382 193.787,90.079C194.523,89.777 195.178,89.517 195.752,89.3L195.752,85.068C195.752,84.448 195.728,83.87 195.682,83.335C195.635,82.8 195.523,82.335 195.345,81.94C195.166,81.544 194.899,81.234 194.542,81.01C194.186,80.785 193.697,80.672 193.077,80.672C192.659,80.672 192.252,80.75 191.856,80.905C191.461,81.06 191.112,81.324 190.81,81.696C190.507,82.068 190.267,82.564 190.089,83.184C189.91,83.804 189.821,84.572 189.821,85.486L189.821,86.882ZM170.896,93.859L170.896,97.114C170.896,98.51 170.95,99.684 171.058,100.638C171.167,101.591 171.349,102.359 171.605,102.94C171.861,103.521 172.209,103.94 172.651,104.196C173.093,104.452 173.647,104.58 174.314,104.58C174.671,104.58 175.02,104.506 175.361,104.359C175.702,104.211 176,103.967 176.256,103.626C176.512,103.285 176.717,102.832 176.872,102.266C177.027,101.7 177.105,100.998 177.105,100.161L177.105,99.161L182.012,99.161L182.012,100.394C182.012,103.432 181.287,105.646 179.837,107.033C178.388,108.421 176.291,109.115 173.547,109.115C172.167,109.115 170.946,108.859 169.884,108.347C168.822,107.835 167.926,107.037 167.198,105.952C166.469,104.866 165.919,103.475 165.547,101.777C165.174,100.08 164.988,98.037 164.988,95.649L164.988,89.603C164.988,87.572 165.14,85.831 165.442,84.382C165.744,82.932 166.14,81.715 166.628,80.73C167.116,79.746 167.682,78.967 168.326,78.393C168.969,77.82 169.632,77.382 170.314,77.079C170.996,76.777 171.675,76.583 172.349,76.498C173.023,76.413 173.647,76.37 174.221,76.37C175.275,76.37 176.291,76.529 177.268,76.847C178.244,77.165 179.105,77.707 179.849,78.475C180.593,79.242 181.186,80.269 181.628,81.556C182.07,82.843 182.291,84.448 182.291,86.37C182.291,87.021 182.272,87.68 182.233,88.347C182.194,89.014 182.144,89.669 182.082,90.312C182.02,90.955 181.938,91.579 181.838,92.184C181.737,92.789 181.632,93.347 181.524,93.859L170.896,93.859ZM160.877,108.766L154.993,108.766L154.993,66.463L160.877,66.463L160.877,108.766ZM212.259,108.766L206.375,108.766L206.375,76.742L210.677,76.742L211.189,79.998C211.84,78.789 212.588,77.882 213.433,77.277C214.278,76.672 215.143,76.37 216.026,76.37C217.716,76.37 218.964,76.889 219.771,77.928C220.577,78.967 220.98,80.525 220.98,82.603C220.98,82.866 220.961,83.18 220.922,83.544C220.883,83.909 220.829,84.289 220.759,84.684C220.689,85.079 220.604,85.475 220.503,85.87C220.402,86.265 220.298,86.626 220.189,86.951L216.096,86.951C216.096,85.959 216.096,84.967 216.096,83.975C216.096,83.399 216.07,82.818 215.944,82.254C215.891,82.02 215.825,81.787 215.731,81.566C215.626,81.32 215.483,81.074 215.27,80.907C215.214,80.864 215.154,80.827 215.09,80.796C214.984,80.745 214.872,80.71 214.756,80.69C214.648,80.672 214.539,80.669 214.43,80.675C214.302,80.682 214.174,80.7 214.05,80.731C213.974,80.75 213.899,80.773 213.826,80.8C213.738,80.833 213.653,80.872 213.57,80.917C212.975,81.236 212.551,81.797 212.259,82.393L212.259,108.766ZM193.1,104.58C193.597,104.58 194.081,104.452 194.554,104.196C195.027,103.94 195.426,103.626 195.752,103.254L195.752,93.231C195.442,93.355 195.093,93.502 194.705,93.673C194.318,93.843 193.899,94.068 193.449,94.347C193.031,94.611 192.62,94.928 192.217,95.3C191.814,95.673 191.453,96.114 191.135,96.626C190.817,97.138 190.562,97.715 190.368,98.359C190.174,99.002 190.077,99.719 190.077,100.51C190.077,101.735 190.317,102.719 190.798,103.463C191.279,104.208 192.046,104.58 193.1,104.58ZM176.803,89.905C176.818,89.734 176.834,89.506 176.849,89.219C176.865,88.932 176.876,88.634 176.884,88.324C176.892,88.014 176.896,87.707 176.896,87.405L176.896,86.626C176.896,84.517 176.648,82.998 176.151,82.068C175.655,81.137 174.919,80.672 173.942,80.672C173.43,80.672 172.981,80.792 172.593,81.033C172.206,81.273 171.888,81.676 171.64,82.242C171.392,82.808 171.206,83.556 171.082,84.486C170.958,85.417 170.896,86.572 170.896,87.952L170.896,89.905L176.803,89.905Z" style="fill:rgb(38,38,38);fill-rule:nonzero;"/>
        <path d="M46.23,109.427C44.713,109.427 43.068,109.307 41.292,109.067C39.517,108.826 37.76,108.318 36.021,107.541C34.283,106.764 32.609,105.664 31,104.24C29.391,102.816 27.967,100.939 26.728,98.608C25.489,96.278 24.5,93.402 23.76,89.981C23.02,86.56 22.65,82.482 22.65,77.747L22.65,44.181C22.65,39.409 23.029,35.331 23.788,31.947C24.546,28.563 25.554,25.715 26.811,23.403C28.069,21.091 29.502,19.251 31.111,17.882C32.72,16.514 34.403,15.469 36.16,14.748C37.917,14.026 39.665,13.555 41.403,13.333C43.141,13.111 44.75,13 46.23,13C47.636,13 49.198,13.102 50.918,13.305C52.638,13.509 54.358,13.952 56.078,14.637C57.798,15.321 59.472,16.338 61.099,17.688C62.727,19.038 64.169,20.869 65.427,23.181C66.684,25.493 67.692,28.359 68.45,31.781C69.209,35.202 69.588,39.335 69.588,44.181L69.588,77.747C69.588,82.445 69.199,86.486 68.423,89.87C67.646,93.254 66.629,96.121 65.371,98.47C64.114,100.819 62.662,102.705 61.016,104.129C59.37,105.553 57.687,106.663 55.967,107.458C54.247,108.253 52.536,108.78 50.835,109.039C49.134,109.298 47.599,109.427 46.23,109.427ZM94.71,108.595L80.34,108.595L80.34,13.832L94.71,13.832C96.522,13.832 98.511,13.915 100.674,14.082C102.838,14.248 105.002,14.637 107.166,15.247C109.329,15.857 111.419,16.791 113.435,18.049C115.451,19.306 117.236,21.017 118.789,23.181C120.343,25.345 121.591,28.054 122.534,31.309C123.477,34.564 123.949,38.522 123.949,43.182L123.949,46.511C123.949,51.578 123.514,55.915 122.645,59.522C121.776,63.128 120.62,66.161 119.178,68.621C117.735,71.08 116.061,73.05 114.156,74.529C112.252,76.009 110.273,77.128 108.22,77.886C106.167,78.644 104.096,79.144 102.006,79.384C99.916,79.624 97.946,79.745 96.097,79.745L94.71,79.745L94.71,108.595ZM46.23,98.608C47.636,98.608 48.865,98.368 49.92,97.887C50.974,97.406 51.843,96.574 52.527,95.391C53.211,94.207 53.729,92.644 54.081,90.702C54.432,88.76 54.608,86.31 54.608,83.351L54.608,40.242C54.608,37.209 54.432,34.675 54.081,32.641C53.729,30.606 53.211,28.97 52.527,27.73C51.843,26.491 50.974,25.613 49.92,25.095C48.865,24.577 47.636,24.318 46.23,24.318C44.787,24.318 43.53,24.577 42.457,25.095C41.385,25.613 40.497,26.491 39.794,27.73C39.091,28.97 38.564,30.606 38.213,32.641C37.861,34.675 37.686,37.209 37.686,40.242L37.686,83.351C37.686,86.31 37.861,88.76 38.213,90.702C38.564,92.644 39.091,94.207 39.794,95.391C40.497,96.574 41.385,97.406 42.457,97.887C43.53,98.368 44.787,98.608 46.23,98.608ZM95.431,24.318L94.71,24.318L94.71,69.203L95.431,69.203C98.02,69.203 100.203,68.824 101.978,68.066C103.754,67.307 105.168,66.124 106.223,64.515C107.277,62.906 108.035,60.835 108.497,58.301C108.96,55.767 109.191,52.725 109.191,49.174L109.191,40.63C109.191,37.819 108.987,35.387 108.58,33.334C108.174,31.281 107.443,29.589 106.389,28.258C105.335,26.926 103.92,25.937 102.145,25.289C100.369,24.642 98.131,24.318 95.431,24.318Z" style="fill:rgb(38,38,38);fill-rule:nonzero;"/>
    </g>
</svg>
